# AST/ASF file generated using VICON BodyLanguage
# -----------------------------------------------
:version 1.10
:name VICON
:units
  mass 1.0
  length 0.45
  angle deg
:documentation
   .ast/.asf automatically generated from VICON data using
   VICON BodyBuilder and BodyLanguage model FoxedUp or BRILLIANT.MOD
:root
   order TX TY TZ RX RY RZ
   axis XYZ
   position 0 0 0  
   orientation 0 0 0 
:bonedata
  begin
     id 1 
     name lhipjoint
     direction 0.714689 -0.624256 0.315473 
     length 2.45343 
     axis 0 0 0  XYZ
  end
  begin
     id 2 
     name lfemur
     direction 0.34202 -0.939693 0  
     length 6.59069  
     axis 0 0 20  XYZ
    dof rx ry rz
    limits (-160.0 20.0)
           (-70.0 70.0)
           (-60.0 70.0)
  end
  begin
     id 3 
     name ltibia
     direction 0.34202 -0.939693 0   
     length 6.73476   
     axis 0 0 20   XYZ
    dof rx
    limits (-10.0 170.0)
  end
  begin
     id 4 
     name lfoot
     direction 0.0718085 -0.197292 0.977711   
     length 1.52607   
     axis -90 7.62852e-016 20   XYZ
    dof rx rz
    limits (-45.0 90.0)
           (-70.0 20.0)
  end
  begin
     id 5 
     name ltoes
     direction 1.53553e-011 -4.22024e-011 1   
     length 0.777832   
     axis -90 7.62852e-016 20   XYZ
    dof rx
    limits (-90.0 20.0)
  end
  begin
     id 6 
     name rhipjoint
     direction -0.727419 -0.612432 0.309497   
     length 2.50079  
     axis 0 0 0  XYZ 
  end
  begin
     id 7 
     name rfemur
     direction -0.34202 -0.939693 0   
     length 6.51665   
     axis 0 0 -20   XYZ
    dof rx ry rz
    limits (-160.0 20.0)
           (-70.0 70.0)
           (-70.0 60.0)
  end
  begin
     id 8 
     name rtibia
     direction -0.34202 -0.939693 0   
     length 6.48919   
     axis 0 0 -20   XYZ
    dof rx
    limits (-10.0 170.0)
 end
 begin
     id 9 
     name rfoot
     direction -0.112205 -0.308282 0.944655   
     length 1.68717  
     axis -90 -7.62852e-016 -20   XYZ
    dof rx rz
    limits (-45.0 90.0)
           (-20.0 70.0)
  end
  begin
     id 10 
     name rtoes
     direction -1.53583e-011 -4.21993e-011 1   
     length 0.846859   
     axis -90 -7.62852e-016 -20   XYZ
    dof rx
    limits (-90.0 20.0)
  end
  begin
     id 11 
     name lowerback
     direction -0.00119603 0.996364 -0.0851956   
     length 1.67242   
     axis 0 0 0   XYZ
    dof rx ry rz
    limits (-20.0 45.0)
           (-30.0 30.0)
           (-30.0 30.0)
  end
  begin
     id 12 
     name upperback
     direction -0.00531001 0.998318 0.0577248   
     length 1.64819   
     axis 0 0 0   XYZ
    dof rx ry rz
    limits (-20.0 45.0)
           (-30.0 30.0)
           (-30.0 30.0)
  end
  begin
     id 13 
     name thorax
     direction -0.00653676 0.995132 0.0983291   
     length 1.67429   
     axis 0 0 0   XYZ
    dof rx ry rz
    limits (-20.0 45.0)
           (-30.0 30.0)
           (-30.0 30.0)
  end
  begin
     id 14 
     name lowerneck
     direction 0.0141424 0.999886 0.00525412   
     length 1.59623   
     axis 0 0 0   XYZ
    dof rx ry rz
    limits (-20.0 45.0)
           (-30.0 30.0)
           (-30.0 30.0)
  end
  begin
     id 15 
     name upperneck
     direction -0.0640064 0.987178 -0.146232   
     length 1.59576   
     axis 0 0 0   XYZ
    dof rx ry rz
    limits (-20.0 45.0)
           (-30.0 30.0)
           (-30.0 30.0)
  end
  begin
     id 16
     name head
     direction -0.0222942 0.998496 -0.0500859  
     length 1.60959  
     axis 0 0 0   XYZ
    dof rx ry rz
    limits (-20.0 45.0)
           (-30.0 30.0)
           (-30.0 30.0)
  end
  begin
     id 17 
     name lclavicle
     direction 0.908549 0.392612 0.142806  
     length 2.80649  
     axis 0 0 0   XYZ
    dof ry rz
    limits (-20.0 10.0)
           (0.0 20.0)
  end
  begin
     id 18 
     name lhumerus
     direction 1 -4.48968e-011 1.08832e-028   
     length 4.2884   
     axis -180 -30 -90   XYZ
    dof rx ry rz
    limits (-60.0 90.0)
           (-90.0 90.0)
           (-90.0 90.0)
  end
  begin
     id 19
     name lradius
     direction 1 -4.48952e-011 -3.02642e-028   
     length 3.06552   
     axis -180 -30 -90   XYZ
    dof rx
    limits (-10.0 170.0)
  end
  begin
     id 20
     name lwrist
     direction 1 -4.49014e-011 1.58672e-027   
     length 1.53276   
     axis -1.65735e-015 90 90   XYZ
    dof ry
    limits (-180.0 0.0)
 end
  begin
     id 21 
     name lhand
     direction 1 -4.48928e-011 3.17344e-027   
     length 0.753045   
     axis -2.02492e-015 90 90   XYZ
    dof rx rz
    limits (-90.0 90.0)
           (-45.0 45.0)
  end
  begin
     id 22 
     name lfingers
     direction 1 -4.48958e-011 6.34687e-027   
     length 0.607124   
     axis -4.04985e-015 90 90   XYZ
    dof rx
    limits (0.0 90.0)
  end
  begin
     id 23
     name lthumb
     direction 0.707107 -6.34905e-011 0.707107   
     length 0.871712   
     axis -90 45 2.85299e-015   XYZ
    dof rx rz
    limits (-45.0 45.0)
           (-45.0 45.0)
  end
  begin
     id 24 
     name rclavicle
     direction -0.885098 0.45949 0.0739604   
     length 2.9478  
     axis 0 0 0   XYZ 
    dof ry rz
    limits (-10.0 20.0)
           (-20.0 0.0)
  end
  begin
     id 25 
     name rhumerus
     direction -1 -4.4898e-011 -2.61739e-027  
     length 4.52172   
     axis -180 30 90   XYZ
    dof rx ry rz
    limits (-90.0 60.0)
           (-90.0 90.0)
           (-90.0 90.0)
  end
  begin
     id 26 
     name rradius
     direction -1 -4.48945e-011 9.02552e-028   
     length 2.8914   
     axis -180 30 90   XYZ
    dof rx
    limits (-10.0 170.0)
  end
  begin
     id 27 
     name rwrist
     direction -1 -4.49018e-011 1.58672e-027   
     length 1.4457   
     axis -1.65735e-015 -90 -90   XYZ
    dof ry
    limits (-180.0 0.0)
  end
  begin
     id 28
     name rhand
     direction -1 -4.48825e-011 3.17344e-027   
     length 0.680541   
     axis -2.02492e-015 -90 -90   XYZ
    dof rx rz
    limits (-90.0 90.0)
           (-45.0 45.0)
  end
  begin
     id 29
     name rfingers
     direction -1 -4.49067e-011 6.34687e-027   
     length 0.54867   
     axis -4.04985e-015 -90 -90   XYZ
    dof rx
    limits (0.0 90.0)
  end
  begin
     id 30
     name rthumb
     direction -0.707107 -6.34833e-011 0.707107   
     length 0.787783   
     axis -90 -45 -2.85299e-015   XYZ
    dof rx rz
    limits (-45.0 45.0)
           (-45.0 45.0)
  end
:hierarchy
  begin
    root lhipjoint rhipjoint lowerback
    lhipjoint lfemur
    lfemur ltibia
    ltibia lfoot
    lfoot ltoes
    rhipjoint rfemur
    rfemur rtibia
    rtibia rfoot
    rfoot rtoes
    lowerback upperback
    upperback thorax
    thorax lowerneck lclavicle rclavicle
    lowerneck upperneck
    upperneck head
    lclavicle lhumerus
    lhumerus lradius
    lradius lwrist
    lwrist lhand lthumb
    lhand lfingers
    rclavicle rhumerus
    rhumerus rradius
    rradius rwrist
    rwrist rhand rthumb
    rhand rfingers
  end

#!OML:ASF E:\emotionWalksFemale\Project 1\Capture day 1\Session 1\Female1.ASF
:FULLY-SPECIFIED
:DEGREES
17
root 8.52314 15.5553 22.2424 180.054 3.14489 -178.881
lowerback 8.95723 0.600723 0.524971
upperback -4.56611 0.950586 0.022246
thorax -9.90781 0.455094 -0.441947
lowerneck -5.59003 -2.03236 -6.06801
upperneck 4.14125 -2.59179 7.47237
head 2.55395 -1.148 3.46513
rclavicle 1.25483e-015 -2.08724e-015
rhumerus -46.1738 18.663 -83.8683
rradius 46.4516
rwrist 24.1775
rhand -6.19598 -54.9878
rfingers 7.12502
rthumb 19.6439 -84.0153
lclavicle 1.25483e-015 -2.08724e-015
lhumerus -47.087 1.49666 70.1782
lradius 38.7144
lwrist -11.2477
lhand 6.24588 -35.8682
lfingers 7.12502
lthumb 31.5576 -8.57451
rfemur 0.233855 18.5958 25.5117
rtibia 13.467
rfoot -15.1041 -29.0725
rtoes 3.35803
lfemur -5.15295 -20.426 -22.595
ltibia 22.023
lfoot -21.6585 20.2352
ltoes -30.4262
18
root 8.52208 15.5544 22.2478 180.206 3.58376 -178.88
lowerback 9.09902 0.786528 0.511399
upperback -4.62067 1.19866 -0.00509529
thorax -10.0496 0.574101 -0.509907
lowerneck -5.47584 -2.05473 -6.01291
upperneck 3.9444 -2.62004 7.39952
head 2.46517 -1.16683 3.42508
rclavicle -9.03228e-015 5.96354e-016
rhumerus -46.6188 19.8147 -83.7018
rradius 46.8899
rwrist 23.3562
rhand -6.28923 -55.314
rfingers 7.12502
rthumb 19.5543 -84.3506
lclavicle -9.03228e-015 5.96354e-016
lhumerus -47.1952 1.21591 69.1593
lradius 38.6141
lwrist -11.2029
lhand 5.88313 -35.9245
lfingers 7.12502
lthumb 31.2119 -8.56361
rfemur -0.0418666 18.5907 25.384
rtibia 13.4414
rfoot -14.5418 -28.8179
rtoes 1.45403
lfemur -5.31423 -20.1575 -22.5592
ltibia 22.0514
lfoot -21.7571 20.3062
ltoes -30.3658
19
root 8.51902 15.5559 22.249 180.392 3.42002 -178.837
lowerback 9.25657 0.775511 0.564335
upperback -4.72332 1.19917 0.0172417
thorax -10.2567 0.571839 -0.520295
lowerneck -5.46714 -2.08513 -6.09437
upperneck 3.8528 -2.65162 7.3609
head 2.43615 -1.18675 3.4249
rclavicle -1.98039e-014 -5.56597e-015
rhumerus -47.1243 20.9601 -83.4503
rradius 47.1703
rwrist 22.4936
rhand -6.81986 -54.7072
rfingers 7.12502
rthumb 19.0441 -83.7948
lclavicle -1.98039e-014 -5.56597e-015
lhumerus -47.3027 1.03445 68.1108
lradius 38.4027
lwrist -11.2776
lhand 5.83459 -35.8022
lfingers 7.12502
lthumb 31.1657 -8.43244
rfemur -0.232469 18.4252 25.3591
rtibia 13.3938
rfoot -14.227 -28.885
rtoes 0.170095
lfemur -5.57982 -20.2107 -22.4337
ltibia 22.0897
lfoot -21.8047 20.1947
ltoes -30.4249
20
root 8.51668 15.5603 22.2491 180.499 3.33635 -178.793
lowerback 9.44746 0.798901 0.565588
upperback -4.77756 1.2404 0.0832377
thorax -10.432 0.593531 -0.461942
lowerneck -5.3693 -2.09942 -6.30071
upperneck 3.61816 -2.65454 7.4058
head 2.34572 -1.19419 3.47809
rclavicle 1.36292e-014 4.27387e-015
rhumerus -47.5186 21.833 -82.8473
rradius 47.6187
rwrist 22.4723
rhand -6.90091 -54.1835
rfingers 7.12502
rthumb 18.9661 -83.2789
lclavicle 1.36292e-014 4.27387e-015
lhumerus -47.4113 1.00907 66.9552
lradius 38.224
lwrist -11.359
lhand 6.39708 -36.0714
lfingers 7.12502
lthumb 31.7016 -8.80604
rfemur -0.325533 18.3792 25.3503
rtibia 13.3358
rfoot -14.2334 -28.7742
rtoes 1.07415
lfemur -5.72908 -20.2784 -22.353
ltibia 22.1251
lfoot -21.8726 20.098
ltoes -29.9447
21
root 8.51474 15.564 22.2475 180.575 3.22174 -178.764
lowerback 9.5108 0.801101 0.600929
upperback -4.75189 1.24895 0.106443
thorax -10.4411 0.595305 -0.459207
lowerneck -5.22468 -2.11689 -6.32596
upperneck 3.32386 -2.6692 7.32535
head 2.22012 -1.20877 3.45106
rclavicle -6.38596e-015 -1.88845e-015
rhumerus -47.665 22.4616 -82.023
rradius 48.1849
rwrist 23.1923
rhand -5.3187 -54.6382
rfingers 7.12502
rthumb 20.4872 -83.5773
lclavicle -6.38596e-015 -1.88845e-015
lhumerus -47.4932 0.957143 65.6763
lradius 38.1779
lwrist -11.2648
lhand 7.30507 -36.6749
lfingers 7.12502
lthumb 32.566 -9.5841
rfemur -0.358043 18.3957 25.3462
rtibia 13.2747
rfoot -14.4606 -28.7959
rtoes 2.67106
lfemur -5.83977 -20.3141 -22.2896
ltibia 22.142
lfoot -21.8635 19.983
ltoes -29.6928
22
root 8.51375 15.5659 22.2454 180.637 3.15577 -178.779
lowerback 9.53603 0.815308 0.622903
upperback -4.69138 1.26354 0.0697362
thorax -10.3873 0.598148 -0.513127
lowerneck -5.13881 -2.12818 -6.1944
upperneck 3.09547 -2.68273 7.17543
head 2.12217 -1.22035 3.37031
rclavicle -5.889e-015 1.98785e-016
rhumerus -47.9477 23.385 -81.6516
rradius 48.4282
rwrist 22.122
rhand -6.58366 -54.5922
rfingers 7.12502
rthumb 19.2712 -83.6574
lclavicle -5.889e-015 1.98785e-016
lhumerus -47.5337 0.805839 64.3566
lradius 38.1856
lwrist -11.4862
lhand 7.62345 -37.1784
lfingers 7.12502
lthumb 32.8689 -10.1507
rfemur -0.411626 18.3775 25.3092
rtibia 13.2959
rfoot -14.695 -28.8359
rtoes 2.67768
lfemur -5.90199 -20.3105 -22.2817
ltibia 22.1127
lfoot -21.771 20.0039
ltoes -30.0151
23
root 8.51364 15.5662 22.2434 180.714 3.13356 -178.822
lowerback 9.5808 0.857155 0.600716
upperback -4.64368 1.30777 0.0110169
thorax -10.3595 0.61738 -0.571806
lowerneck -5.09561 -2.14328 -6.0498
upperneck 2.8599 -2.70047 7.08385
head 2.03165 -1.23076 3.30772
rclavicle 6.47293e-015 1.19271e-015
rhumerus -48.1492 24.0076 -81.0334
rradius 48.8173
rwrist 22.1055
rhand -6.40241 -54.1951
rfingers 7.12502
rthumb 19.4455 -83.2428
lclavicle 6.47293e-015 1.19271e-015
lhumerus -47.5174 0.648989 62.9881
lradius 38.0505
lwrist -12.0323
lhand 7.48499 -37.6107
lfingers 7.12502
lthumb 32.7372 -10.5555
rfemur -0.529235 18.3208 25.2361
rtibia 13.3691
rfoot -14.6932 -28.8317
rtoes 1.69953
lfemur -5.96608 -20.2806 -22.3033
ltibia 22.0702
lfoot -21.5942 20.1226
ltoes -30.9282
